<?xml version="1.0" encoding="utf-8"?>
<!-- Generator: Adobe Illustrator 18.0.0, SVG Export Plug-In . SVG Version: 6.00 Build 0)  -->
<!DOCTYPE svg PUBLIC "-//W3C//DTD SVG 1.1//EN" "http://www.w3.org/Graphics/SVG/1.1/DTD/svg11.dtd">
<svg version="1.1" id="Layer_1" xmlns="http://www.w3.org/2000/svg" xmlns:xlink="http://www.w3.org/1999/xlink" x="0px" y="0px"
	 width="72px" height="24px" viewBox="0 0 72 24" style="enable-background:new 0 0 72 24;" xml:space="preserve">
<g>
	<g>
		<path style="fill:#757575;" d="M0,9.6c0-5,4.2-9.1,9.2-9.1c2.8,0,4.7,1.1,6.2,2.5l-1.7,1.7c-1.1-1-2.5-1.8-4.5-1.8
			c-3.6,0-6.5,2.9-6.5,6.6c0,3.6,2.8,6.6,6.5,6.6c2.4,0,3.7-0.9,4.6-1.8c0.7-0.7,1.2-1.7,1.3-3.1H9.2V8.8h8.3c0.1,0.4,0.1,1,0.1,1.5
			c0,1.9-0.5,4.2-2.1,5.8c-1.6,1.7-3.6,2.5-6.3,2.5C4.2,18.6,0,14.6,0,9.6z"/>
		<path style="fill:#757575;" d="M24.4,7c-3.2,0-5.9,2.5-5.9,5.8c0,3.4,2.6,5.8,5.9,5.8c3.2,0,5.9-2.5,5.9-5.8
			C30.2,9.4,27.6,7,24.4,7z M24.4,16.3c-1.8,0-3.3-1.5-3.3-3.5c0-2.1,1.5-3.5,3.3-3.5s3.3,1.4,3.3,3.5
			C27.7,14.9,26.1,16.3,24.4,16.3z"/>
		<path style="fill:#757575;" d="M37.1,7c-3.2,0-5.9,2.5-5.9,5.8c0,3.4,2.6,5.8,5.9,5.8c3.2,0,5.9-2.5,5.9-5.8C43,9.4,40.4,7,37.1,7
			z M37.1,16.3c-1.8,0-3.3-1.5-3.3-3.5c0-2.1,1.5-3.5,3.3-3.5s3.3,1.4,3.3,3.5S38.9,16.3,37.1,16.3z"/>
		<path style="fill:#757575;" d="M52.8,7.3v0.9h-0.1C52.1,7.6,51,7,49.6,7C46.7,7,44,9.6,44,12.9s2.7,5.8,5.6,5.8
			c1.4,0,2.5-0.6,3.1-1.3h0.1v0.8c0,2.2-1.2,3.4-3.1,3.4c-1.6,0-2.5-1.1-2.9-2.1l-2.2,0.9c0.6,1.5,2.3,3.4,5.2,3.4
			c3,0,5.5-1.8,5.5-6.1V7.3H52.8z M49.9,16.3c-1.8,0-3.2-1.5-3.2-3.5c0-2.1,1.5-3.6,3.2-3.6s3.1,1.5,3.1,3.6S51.6,16.3,49.9,16.3z"
			/>
		<rect x="57" y="1.1" style="fill:#757575;" width="2.6" height="17.1"/>
		<path style="fill:#757575;" d="M66.6,16.3c-1.3,0-2.2-0.6-2.8-1.8l7.8-3.2l-0.3-0.7c-0.5-1.3-2-3.7-5-3.7s-5.5,2.4-5.5,5.8
			c0,3.3,2.5,5.8,5.8,5.8c2.7,0,4.2-1.6,4.9-2.6l-2-1.3C68.8,15.7,67.9,16.3,66.6,16.3z M66.4,9.2c1,0,1.9,0.5,2.2,1.2l-5.2,2.2
			C63.3,10.4,65.1,9.2,66.4,9.2z"/>
	</g>
</g>
</svg>
